<svg viewBox="0 0 24 24" fill="none" xmlns="http://www.w3.org/2000/svg">
  <rect width="24" height="24" rx="6" fill="#8b5cf6"/>
  <path d="M18 8h-1V6a2 2 0 00-2-2H9a2 2 0 00-2 2v2H6a2 2 0 00-2 2v6c0 1.1.9 2 2 2h12a2 2 0 002-2v-6a2 2 0 00-2-2zM9 6h6v2H9V6zm7 10a1 1 0 110-2 1 1 0 010 2zm0-3a1 1 0 110-2 1 1 0 010 2zM8 12c.83 0 1.5-.67 1.5-1.5S8.83 9 8 9s-1.5.67-1.5 1.5S7.17 12 8 12z" 
        fill="white" 
        stroke="white" 
        stroke-width="0.5"
        stroke-linecap="round" 
        stroke-linejoin="round"/>
</svg>
